<svg xmlns="http://www.w3.org/2000/svg" style="display: none;">
  <!-- Home Icon -->
  <symbol id="icon-home" viewBox="0 0 24 24" fill="none" stroke="currentColor" stroke-width="2" stroke-linecap="round" stroke-linejoin="round">
    <path d="M3 9l9-7 9 7v11a2 2 0 0 1-2 2H5a2 2 0 0 1-2-2z"></path>
    <polyline points="9 22 9 12 15 12 15 22"></polyline>
  </symbol>

  <!-- Documentation Icon -->
  <symbol id="icon-docs" viewBox="0 0 24 24" fill="none" stroke="currentColor" stroke-width="2" stroke-linecap="round" stroke-linejoin="round">
    <path d="M14 2H6a2 2 0 0 0-2 2v16a2 2 0 0 0 2 2h12a2 2 0 0 0 2-2V8z"></path>
    <polyline points="14 2 14 8 20 8"></polyline>
    <line x1="12" y1="11" x2="12" y2="17"></line>
    <line x1="9" y1="14" x2="15" y2="14"></line>
  </symbol>

  <!-- Tickets Icon -->
  <symbol id="icon-tickets" viewBox="0 0 24 24" fill="none" stroke="currentColor" stroke-width="2" stroke-linecap="round" stroke-linejoin="round">
    <path d="M2 7a2 2 0 0 1 2-2h16a2 2 0 0 1 2 2v12a2 2 0 0 1-2 2H4a2 2 0 0 1-2-2V7z"></path>
    <path d="M9 11h6"></path>
    <path d="M9 15h6"></path>
  </symbol>

  <!-- API Keys Icon -->
  <symbol id="icon-keys" viewBox="0 0 24 24" fill="none" stroke="currentColor" stroke-width="2" stroke-linecap="round" stroke-linejoin="round">
    <circle cx="7.5" cy="15.5" r="5.5"></circle>
    <path d="M21 2l-9.6 9.6"></path>
    <path d="M15.5 1h6v6"></path>
  </symbol>

  <!-- Webhooks Icon -->
  <symbol id="icon-webhooks" viewBox="0 0 24 24" fill="none" stroke="currentColor" stroke-width="2" stroke-linecap="round" stroke-linejoin="round">
    <path d="M12 2v20"></path>
    <path d="M2 12h20"></path>
    <circle cx="12" cy="12" r="1"></circle>
    <path d="M4.22 4.22l11.56 11.56"></path>
    <path d="M19.78 4.22L8.22 15.78"></path>
  </symbol>

  <!-- Code/Examples Icon -->
  <symbol id="icon-code" viewBox="0 0 24 24" fill="none" stroke="currentColor" stroke-width="2" stroke-linecap="round" stroke-linejoin="round">
    <polyline points="16 18 22 12 16 6"></polyline>
    <polyline points="8 6 2 12 8 18"></polyline>
  </symbol>

  <!-- Teams Icon -->
  <symbol id="icon-teams" viewBox="0 0 24 24" fill="none" stroke="currentColor" stroke-width="2" stroke-linecap="round" stroke-linejoin="round">
    <path d="M17 21v-2a4 4 0 0 0-4-4H5a4 4 0 0 0-4 4v2"></path>
    <circle cx="9" cy="7" r="4"></circle>
    <path d="M23 21v-2a4 4 0 0 0-3-3.87"></path>
    <path d="M16 3.13a4 4 0 0 1 0 7.75"></path>
  </symbol>

  <!-- Security Icon -->
  <symbol id="icon-security" viewBox="0 0 24 24" fill="none" stroke="currentColor" stroke-width="2" stroke-linecap="round" stroke-linejoin="round">
    <path d="M12 22s8-4 8-10V5l-8-3-8 3v7c0 6 8 10 8 10z"></path>
  </symbol>

  <!-- Logout Icon -->
  <symbol id="icon-logout" viewBox="0 0 24 24" fill="none" stroke="currentColor" stroke-width="2" stroke-linecap="round" stroke-linejoin="round">
    <path d="M9 21H5a2 2 0 0 1-2-2V5a2 2 0 0 1 2-2h4"></path>
    <polyline points="16 17 21 12 16 7"></polyline>
    <line x1="21" y1="12" x2="9" y2="12"></line>
  </symbol>

  <!-- Eye Icon (View) -->
  <symbol id="icon-view" viewBox="0 0 24 24" fill="none" stroke="currentColor" stroke-width="2" stroke-linecap="round" stroke-linejoin="round">
    <path d="M1 12s4-8 11-8 11 8 11 8-4 8-11 8-11-8-11-8z"></path>
    <circle cx="12" cy="12" r="3"></circle>
  </symbol>

  <!-- Edit Icon -->
  <symbol id="icon-edit" viewBox="0 0 24 24" fill="none" stroke="currentColor" stroke-width="2" stroke-linecap="round" stroke-linejoin="round">
    <path d="M11 4H4a2 2 0 0 0-2 2v14a2 2 0 0 0 2 2h14a2 2 0 0 0 2-2v-7"></path>
    <path d="M18.5 2.5a2.121 2.121 0 0 1 3 3L12 15l-4 1 1-4 9.5-9.5z"></path>
  </symbol>

  <!-- Plus Icon (Create) -->
  <symbol id="icon-plus" viewBox="0 0 24 24" fill="none" stroke="currentColor" stroke-width="2" stroke-linecap="round" stroke-linejoin="round">
    <line x1="12" y1="5" x2="12" y2="19"></line>
    <line x1="5" y1="12" x2="19" y2="12"></line>
  </symbol>

  <!-- Trash Icon (Delete) -->
  <symbol id="icon-trash" viewBox="0 0 24 24" fill="none" stroke="currentColor" stroke-width="2" stroke-linecap="round" stroke-linejoin="round">
    <polyline points="3 6 5 6 21 6"></polyline>
    <path d="M19 6v14a2 2 0 0 1-2 2H7a2 2 0 0 1-2-2V6m3 0V4a2 2 0 0 1 2-2h4a2 2 0 0 1 2 2v2"></path>
    <line x1="10" y1="11" x2="10" y2="17"></line>
    <line x1="14" y1="11" x2="14" y2="17"></line>
  </symbol>

  <!-- Check Icon (Success) -->
  <symbol id="icon-check" viewBox="0 0 24 24" fill="none" stroke="currentColor" stroke-width="2" stroke-linecap="round" stroke-linejoin="round">
    <polyline points="20 6 9 17 4 12"></polyline>
  </symbol>

  <!-- Alert Icon (Warning) -->
  <symbol id="icon-alert" viewBox="0 0 24 24" fill="none" stroke="currentColor" stroke-width="2" stroke-linecap="round" stroke-linejoin="round">
    <path d="M10.29 3.86L1.82 18a2 2 0 0 0 1.71 3.05h16.94a2 2 0 0 0 1.71-3.05L13.71 3.86a2 2 0 0 0-3.42 0z"></path>
    <line x1="12" y1="9" x2="12" y2="13"></line>
    <line x1="12" y1="17" x2="12.01" y2="17"></line>
  </symbol>

  <!-- Error Icon -->
  <symbol id="icon-error" viewBox="0 0 24 24" fill="none" stroke="currentColor" stroke-width="2" stroke-linecap="round" stroke-linejoin="round">
    <circle cx="12" cy="12" r="10"></circle>
    <line x1="15" y1="9" x2="9" y2="15"></line>
    <line x1="9" y1="9" x2="15" y2="15"></line>
  </symbol>

  <!-- Info Icon -->
  <symbol id="icon-info" viewBox="0 0 24 24" fill="none" stroke="currentColor" stroke-width="2" stroke-linecap="round" stroke-linejoin="round">
    <circle cx="12" cy="12" r="10"></circle>
    <line x1="12" y1="16" x2="12" y2="12"></line>
    <line x1="12" y1="8" x2="12.01" y2="8"></line>
  </symbol>

  <!-- Rocket Icon (Launch) -->
  <symbol id="icon-rocket" viewBox="0 0 24 24" fill="none" stroke="currentColor" stroke-width="2" stroke-linecap="round" stroke-linejoin="round">
    <path d="M4.5 16.5c-1.5-1.26-2-5-2-5s3.5-3.5 6.5-3.5c3 0 6.5 3.5 6.5 3.5s-.5 3.75-2 5M12 12v5m3-2h4m-6 0h-4"></path>
    <circle cx="12" cy="7" r="3"></circle>
  </symbol>

  <!-- Settings Icon -->
  <symbol id="icon-settings" viewBox="0 0 24 24" fill="none" stroke="currentColor" stroke-width="2" stroke-linecap="round" stroke-linejoin="round">
    <circle cx="12" cy="12" r="3"></circle>
    <path d="M12 1v6m0 6v6M4.22 4.22l4.24 4.24m2.12 2.12l4.24 4.24M1 12h6m6 0h6m-16.78 7.78l4.24-4.24m2.12-2.12l4.24-4.24"></path>
  </symbol>

  <!-- Copy Icon -->
  <symbol id="icon-copy" viewBox="0 0 24 24" fill="none" stroke="currentColor" stroke-width="2" stroke-linecap="round" stroke-linejoin="round">
    <path d="M16 4h2a2 2 0 0 1 2 2v14a2 2 0 0 1-2 2H6a2 2 0 0 1-2-2V6a2 2 0 0 1 2-2h2"></path>
    <rect x="8" y="2" width="8" height="4" rx="1" ry="1"></rect>
  </symbol>

  <!-- Download Icon -->
  <symbol id="icon-download" viewBox="0 0 24 24" fill="none" stroke="currentColor" stroke-width="2" stroke-linecap="round" stroke-linejoin="round">
    <path d="M21 15v4a2 2 0 0 1-2 2H5a2 2 0 0 1-2-2v-4"></path>
    <polyline points="7 10 12 15 17 10"></polyline>
    <line x1="12" y1="15" x2="12" y2="3"></line>
  </symbol>

  <!-- Search Icon -->
  <symbol id="icon-search" viewBox="0 0 24 24" fill="none" stroke="currentColor" stroke-width="2" stroke-linecap="round" stroke-linejoin="round">
    <circle cx="11" cy="11" r="8"></circle>
    <path d="m21 21-4.35-4.35"></path>
  </symbol>

  <!-- Menu Icon -->
  <symbol id="icon-menu" viewBox="0 0 24 24" fill="none" stroke="currentColor" stroke-width="2" stroke-linecap="round" stroke-linejoin="round">
    <line x1="3" y1="6" x2="21" y2="6"></line>
    <line x1="3" y1="12" x2="21" y2="12"></line>
    <line x1="3" y1="18" x2="21" y2="18"></line>
  </symbol>

  <!-- Close Icon -->
  <symbol id="icon-close" viewBox="0 0 24 24" fill="none" stroke="currentColor" stroke-width="2" stroke-linecap="round" stroke-linejoin="round">
    <line x1="18" y1="6" x2="6" y2="18"></line>
    <line x1="6" y1="6" x2="18" y2="18"></line>
  </symbol>

  <!-- WhatsApp Icon -->
  <symbol id="icon-whatsapp" viewBox="0 0 24 24" fill="none" stroke="currentColor" stroke-width="2" stroke-linecap="round" stroke-linejoin="round">
    <path d="M21 11.5a8.38 8.38 0 0 1-.9 3.8 8.5 8.5 0 1 1-7.6-11.7c.9 0 1.8.1 2.7.4l2.7-.9-1.2 2.4c.4.9.7 1.9.7 2.9z"></path>
    <path d="M17.5 15.5c-.3 0-1.5 0-1.5 0s-1.5-1.5-2.5-1.5-1.5 1.5-2.5 1.5-1.5 0-1.5 0"></path>
  </symbol>
</svg>
